<svg width="68" height="63" viewBox="0 0 68 63" fill="none" xmlns="http://www.w3.org/2000/svg">
<g clip-path="url(#clip0_107402_2)">
<g filter="url(#filter0_d_107402_2)">
<path d="M45.4878 15.7775L20.5023 15.8862C16.9634 15.9022 14.0815 18.8103 14.0966 22.3517L14.1427 32.8175C14.1586 36.3564 17.0667 39.2383 20.6082 39.2233L26.6513 39.1967C29.5236 41.8834 31.2157 44.1614 32.2142 44.1578C33.1839 44.1527 35.1446 41.5083 37.7277 39.1461L45.5981 39.1102C49.137 39.0943 52.0189 36.1862 52.0039 32.6447L51.9578 22.1789C51.9418 18.6401 49.0337 15.7581 45.4923 15.7732L45.4878 15.7775Z" fill="#FCFCFC"/>
</g>
<path d="M34.7489 19.0528C29.9666 18.0578 25.2383 21.1596 24.2433 25.942C23.2483 30.7243 26.3501 35.4526 31.1325 36.4476C35.9148 37.4426 40.6431 34.3408 41.6381 29.5584C42.6331 24.776 39.5313 20.0478 34.7489 19.0528V19.0528Z" fill="url(#paint0_linear_107402_2)"/>
<path d="M28.7017 27.0119C27.8809 26.8234 27.0826 27.4577 27.1186 28.3003L27.1208 28.3187C27.2811 31.9064 30.0722 34.6963 33.3495 34.5483C36.6268 34.4002 39.155 31.3711 38.9938 27.7861L38.9916 27.7676C38.952 26.9268 38.1003 26.3653 37.2973 26.6273C36.0452 27.0342 34.5874 27.2848 33.0232 27.3562C31.4591 27.4275 29.9842 27.3073 28.7007 27.0145L28.7017 27.0119Z" fill="#1F1F40"/>
<path d="M33.3469 34.5473C34.5156 34.4959 35.5859 34.0709 36.4772 33.3905C36.4772 33.3905 35.3718 32.6997 33.2702 32.793C30.9307 32.8362 30.1295 33.6755 30.1295 33.6755C31.0777 34.2716 32.1808 34.5997 33.3504 34.5457L33.3469 34.5473Z" fill="#FF2936"/>
<path d="M37.853 25.4146C37.8206 25.4147 37.7891 25.4123 37.7569 25.4037L35.5398 24.8024C35.4057 24.7661 35.3084 24.6517 35.2932 24.5139C35.2779 24.376 35.3457 24.2444 35.4673 24.1763C35.4673 24.1763 37.1654 23.2557 37.6729 22.973C37.8378 22.8821 38.0432 22.9411 38.1324 23.1025C38.2241 23.2649 38.1642 23.4729 38.0028 23.562C37.7189 23.722 37.0573 24.0819 36.5341 24.3678L37.9365 24.7473C38.1158 24.7969 38.2228 24.9824 38.1732 25.1617C38.1348 25.3098 37.9994 25.4083 37.8539 25.412L37.853 25.4146Z" fill="#1F1F40"/>
<path d="M28.3902 25.4528C28.2448 25.4565 28.1076 25.3632 28.0611 25.2141C28.0047 25.035 28.1044 24.8472 28.2835 24.7909L29.6694 24.3555C29.135 24.0902 28.4603 23.757 28.1694 23.6085C28.0022 23.525 27.9377 23.3195 28.0212 23.1523C28.1047 22.9852 28.3076 22.9197 28.4748 23.0032C28.9926 23.2655 30.7249 24.1193 30.7249 24.1193C30.8496 24.1817 30.9237 24.3113 30.9127 24.4486C30.9017 24.5858 30.8088 24.7055 30.6765 24.7462L28.4853 25.4339C28.4526 25.4428 28.421 25.4491 28.3912 25.4502L28.3902 25.4528Z" fill="#1F1F40"/>
</g>
<defs>
<filter id="filter0_d_107402_2" x="3.0965" y="8.77313" width="73.9074" height="64.3847" filterUnits="userSpaceOnUse" color-interpolation-filters="sRGB">
<feFlood flood-opacity="0" result="BackgroundImageFix"/>
<feColorMatrix in="SourceAlpha" type="matrix" values="0 0 0 0 0 0 0 0 0 0 0 0 0 0 0 0 0 0 127 0" result="hardAlpha"/>
<feOffset dx="7" dy="11"/>
<feGaussianBlur stdDeviation="9"/>
<feColorMatrix type="matrix" values="0 0 0 0 0.129412 0 0 0 0 0.180392 0 0 0 0 0.341176 0 0 0 0.2 0"/>
<feBlend mode="normal" in2="BackgroundImageFix" result="effect1_dropShadow_107402_2"/>
<feBlend mode="normal" in="SourceGraphic" in2="effect1_dropShadow_107402_2" result="shape"/>
</filter>
<linearGradient id="paint0_linear_107402_2" x1="28.0749" y1="20.3308" x2="37.8072" y2="35.169" gradientUnits="userSpaceOnUse">
<stop stop-color="#FFF900"/>
<stop offset="1" stop-color="#FF7C00"/>
</linearGradient>
<clipPath id="clip0_107402_2">
<rect width="55.1031" height="46.7961" fill="white" transform="translate(15.8023) rotate(19.7359)"/>
</clipPath>
</defs>
</svg>
